<svg width="144" height="70" viewBox="0 0 144 70" fill="none" xmlns="http://www.w3.org/2000/svg">
<g clip-path="url(#clip0_175_65)">
<path d="M57.02 16.4901C57.02 16.4901 50.45 4.63005 38.19 1.07005C38.19 1.07005 25.56 -1.32995 18.32 3.72005C18.32 3.72005 5.99001 9.27005 1.59001 24.4501C1.59001 24.4501 -1.99999 35.0601 3.83001 49.8201L8.31001 57.4501C8.31001 57.4501 5.92001 64.8301 11.9 68.3901C16.36 71.0501 20.79 64.8501 21.9 62.9001C21.88 62.8601 21.86 62.8101 21.85 62.7701C21.82 62.8201 21.79 62.8701 21.76 62.9201C21.66 63.09 21.58 63.2301 21.51 63.3401C22.09 61.9301 23.5 56.5501 15.93 52.8101C15.93 52.8101 11.6 52.6401 11.15 54.1401C11.15 54.1401 -0.129994 43.94 7.12001 20.9801C7.12001 20.9801 22.51 -4.46995 44.02 9.37005C65.53 23.2201 55.08 47.5101 55.08 47.5101C55.08 47.5101 47.16 62.6001 38.5 62.6001C38.5 62.6001 34.17 65.6701 32.97 59.2801V53.6401C32.97 53.6401 34.76 54.3001 38.95 51.6501C43.13 49.0001 46.57 41.0401 45.52 35.5701L45.37 23.4701C45.37 23.4701 45.74 17.6701 38.35 15.8401C38.35 15.8401 35.06 14.4301 34.17 15.1801C33.27 15.9301 33.57 19.4901 33.57 19.4901C33.57 19.4901 33.35 21.0701 34.02 21.1501C34.69 21.2301 35.96 21.4801 38.2 20.4901C40.44 19.5001 41.49 23.8101 41.49 23.8101L41.64 34.8301C41.64 34.8301 42.09 44.7101 37.76 47.0301C37.76 47.0301 33.2 53.9101 23.12 46.7001C23.12 46.7001 19.38 41.8901 20.28 31.2801C20.28 31.2801 19.23 19.6701 24.02 21.0001C24.02 21.0001 27.31 21.8301 28.05 21.0001C28.79 20.1701 28.05 15.3601 28.05 15.3601L26.41 14.7001C26.41 14.7001 19.69 17.2701 18.94 18.0201C18.19 18.7701 15.58 22.75 16.85 28.6301C16.85 28.6301 14.61 44.3801 19.99 48.6901C19.99 48.6901 24.21 53.5001 29.05 54.3301C29.05 54.3301 27.76 66.2701 33.89 67.6001C33.89 67.6001 45.54 68.6801 51.82 59.3101C51.82 59.3101 61.53 48.7001 61.23 38.0901C61.23 38.0901 63.02 28.5601 57.05 16.5301L57.02 16.4901Z" fill="#83C5BE" stroke="#006D77" stroke-miterlimit="10"/>
<path d="M23.41 31.79V36.28H29.03V41.95H33.71V36.28H38.05V31.79H33.42L32.97 26.41H29.03V31.64L23.41 31.79Z" fill="#83C5BE" stroke="#006D77" stroke-miterlimit="10"/>
</g>
<path d="M64.9483 50.6484L64.4503 50.1357C65.7003 48.9443 66.6964 48.1533 67.4385 47.7627C68.1807 47.3721 68.8155 47.1768 69.3428 47.1768C69.5479 47.1768 69.709 47.2207 69.8262 47.3086C69.9434 47.3965 70.002 47.499 70.002 47.6162C70.002 47.7041 69.9776 47.8604 69.9288 48.085L69.2696 51.0293C70.2657 49.9258 71.5157 48.8955 73.0196 47.9385C73.8204 47.4404 74.4796 47.1914 74.9971 47.1914C75.378 47.1914 75.6758 47.3135 75.8907 47.5576C76.1055 47.8018 76.213 48.1533 76.213 48.6123C76.213 48.915 76.169 49.2568 76.0811 49.6377C75.9249 50.2725 75.5147 51.6543 74.8506 53.7832C74.2256 55.7754 73.9131 57.0986 73.9131 57.7529C73.9131 57.9482 73.9424 58.0947 74.001 58.1924C74.0596 58.29 74.1426 58.3389 74.2501 58.3389C74.5333 58.3389 74.9776 58.0654 75.5831 57.5186C76.0128 57.1279 76.4424 56.7666 76.8721 56.4346L77.2383 56.9619C76.3399 57.958 75.4073 58.7588 74.4405 59.3643C73.8253 59.7549 73.3174 59.9502 72.9171 59.9502C72.546 59.9502 72.2579 59.8135 72.0528 59.54C71.8477 59.2764 71.7452 58.8418 71.7452 58.2363C71.7452 57.3672 72.2872 55.2041 73.3712 51.7471C73.7032 50.5166 73.8692 49.7988 73.8692 49.5938C73.8692 49.291 73.6885 49.1396 73.3272 49.1396C72.9366 49.1396 72.4337 49.3447 71.8184 49.7549C70.9005 50.3604 70.1339 51.0732 69.5186 51.8936C69.128 52.4209 68.8008 53.2607 68.5372 54.4131L67.3506 59.5254H65.168C65.5782 58.0605 65.9346 56.6592 66.2374 55.3213L67.5411 49.7549C67.5899 49.5303 67.6143 49.3691 67.6143 49.2715C67.6143 49.0078 67.5167 48.876 67.3214 48.876C67.1651 48.876 66.9405 48.9785 66.6475 49.1836C66.0421 49.584 65.4756 50.0723 64.9483 50.6484ZM84.4014 56.0098L84.8995 56.5371C84.1378 57.3965 83.2344 58.1826 82.1895 58.8955C81.1544 59.5986 80.2999 59.9502 79.626 59.9502C79.3233 59.9502 79.0743 59.833 78.879 59.5986C78.6837 59.374 78.586 59.0615 78.586 58.6611C78.586 57.8799 78.8887 56.2588 79.4942 53.7979L81.0762 47.3672C81.6524 45.043 82.1358 43.4854 82.5264 42.6943C83.1319 41.4932 83.9864 40.5605 85.0899 39.8965C86.2032 39.2324 87.3751 38.9004 88.6055 38.9004C89.0255 38.9004 89.3526 39.0029 89.587 39.208C89.8311 39.4033 89.9532 39.6426 89.9532 39.9258C89.9532 40.2383 89.836 40.4971 89.6016 40.7021C89.3672 40.8975 89.0255 40.9951 88.5762 40.9951C88.2833 40.9951 87.8682 40.9463 87.3311 40.8486C86.8624 40.7705 86.4278 40.7314 86.0274 40.7314C85.627 40.7314 85.3243 40.8145 85.1192 40.9805C84.836 41.2148 84.5772 41.708 84.3428 42.46C84.1182 43.2119 83.7471 44.6963 83.2296 46.9131L81.7794 53.0508C81.0567 56.127 80.6954 57.7334 80.6954 57.8701C80.6954 58.1826 80.8077 58.3389 81.0323 58.3389C81.2471 58.3389 81.5596 58.2119 81.9698 57.958C82.7803 57.4502 83.5909 56.8008 84.4014 56.0098ZM85.4708 50.1943L85.002 49.5059L86.086 48.7734C87.1407 48.0508 87.8829 47.5869 88.3126 47.3818C88.5567 47.2646 88.7813 47.2061 88.9864 47.2061C89.1915 47.2061 89.3868 47.3232 89.5723 47.5576C90.4317 48.6416 91.1544 50.1064 91.7403 51.9521C92.3262 53.7881 92.6192 55.5703 92.6192 57.2988C92.6192 57.5234 92.6094 57.8652 92.5899 58.3242C94.2403 55.2871 95.0655 52.875 95.0655 51.0879C95.0655 50.7168 94.9825 50.2236 94.8165 49.6084C94.6407 48.9248 94.5528 48.4365 94.5528 48.1436C94.5528 47.8604 94.6407 47.626 94.8165 47.4404C95.002 47.2549 95.2315 47.1621 95.5049 47.1621C95.8467 47.1621 96.1202 47.2939 96.3253 47.5576C96.5401 47.8213 96.6475 48.1973 96.6475 48.6855C96.6475 49.9453 96.3594 51.5176 95.7833 53.4023C95.2071 55.2773 94.2989 57.2988 93.0587 59.4668C91.8282 61.625 90.7003 63.2266 89.6749 64.2715C88.6592 65.3262 87.6729 66.0781 86.7159 66.5273C85.7686 66.9863 84.8702 67.2158 84.0206 67.2158C83.376 67.2158 82.8926 67.0938 82.5704 66.8496C82.2383 66.6152 82.0723 66.332 82.0723 66C82.0723 65.707 82.1993 65.4531 82.4532 65.2383C82.7071 65.0332 83.0489 64.9307 83.4786 64.9307C83.8106 64.9307 84.2647 64.9941 84.8409 65.1211C85.4561 65.2578 85.876 65.3262 86.1006 65.3262C86.6964 65.3262 87.3262 65.0771 87.9903 64.5791C88.8985 63.8955 89.6163 63.0801 90.1436 62.1328C90.6807 61.1855 90.9493 60.2285 90.9493 59.2617C90.9493 57.9043 90.7491 56.2734 90.3487 54.3691C89.9581 52.4648 89.4014 51.0098 88.6788 50.0039C88.3174 49.4863 87.9317 49.2275 87.5215 49.2275C87.043 49.2275 86.3594 49.5498 85.4708 50.1943ZM97.9219 50.5898L97.4825 50.0039C98.4493 49.0371 99.3672 48.3242 100.236 47.8652C101.106 47.4062 101.789 47.1768 102.287 47.1768C102.492 47.1768 102.644 47.2207 102.741 47.3086C102.849 47.3965 102.902 47.5186 102.902 47.6748C102.902 47.8701 102.824 48.2461 102.668 48.8027C102.443 49.623 102.287 50.2725 102.199 50.751C104.543 48.3682 106.335 47.1768 107.575 47.1768C107.898 47.1768 108.142 47.2646 108.308 47.4404C108.474 47.6162 108.557 47.8945 108.557 48.2754C108.557 48.6855 108.41 49.3838 108.117 50.3701C109.231 49.208 110.197 48.3877 111.018 47.9092C111.838 47.4209 112.478 47.1768 112.937 47.1768C113.347 47.1768 113.664 47.2939 113.889 47.5283C114.113 47.7627 114.226 48.124 114.226 48.6123C114.226 48.9053 114.177 49.252 114.079 49.6523C113.982 50.0527 113.625 51.2734 113.01 53.3145C112.238 55.8438 111.853 57.3525 111.853 57.8408C111.853 58.1729 111.989 58.3389 112.263 58.3389C112.448 58.3389 112.629 58.2803 112.805 58.1631C113.381 57.7529 113.972 57.2451 114.577 56.6396L115.061 57.167C114.856 57.333 114.47 57.6748 113.903 58.1924C113.122 58.8955 112.585 59.335 112.292 59.5107C111.726 59.8428 111.247 60.0088 110.857 60.0088C110.564 60.0088 110.305 59.8623 110.08 59.5693C109.856 59.2861 109.743 58.8906 109.743 58.3828C109.743 57.9141 109.812 57.3672 109.948 56.7422C110.085 56.1074 110.485 54.6914 111.149 52.4941C111.648 50.8438 111.897 49.8428 111.897 49.4912C111.897 49.1592 111.75 48.9932 111.457 48.9932C111.213 48.9932 110.886 49.1152 110.476 49.3594C109.636 49.8672 108.933 50.4873 108.366 51.2197C107.976 51.7275 107.634 52.5332 107.341 53.6367C106.687 56.0488 106.198 58.0166 105.876 59.54H103.796L105.979 50.5898C106.135 49.9453 106.213 49.5742 106.213 49.4766C106.213 49.3203 106.174 49.2031 106.096 49.125C106.018 49.0371 105.905 48.9932 105.759 48.9932C105.495 48.9932 105.085 49.1982 104.528 49.6084C103.562 50.3018 102.863 50.9756 102.434 51.6299C102.014 52.2744 101.652 53.2607 101.35 54.5889L100.222 59.54H98.127L99.7823 52.5527C100.271 50.5312 100.515 49.4326 100.515 49.2568C100.515 49.0322 100.427 48.9199 100.251 48.9199C99.8702 48.9199 99.0938 49.4766 97.9219 50.5898ZM123.806 55.8633L124.289 56.5078C121.897 58.7832 119.846 59.9209 118.137 59.9209C117.443 59.9209 116.911 59.6865 116.54 59.2178C116.179 58.749 115.998 57.9971 115.998 56.9619C115.998 54.8721 116.633 52.792 117.902 50.7217C119.328 48.3682 121.032 47.1914 123.015 47.1914C123.708 47.1914 124.235 47.3672 124.597 47.7188C124.968 48.0605 125.153 48.5342 125.153 49.1396C125.153 49.7744 124.934 50.3994 124.494 51.0146C124.055 51.6299 123.269 52.2695 122.136 52.9336C121.569 53.2559 120.358 53.8369 118.503 54.6768C118.415 55.2041 118.371 55.707 118.371 56.1855C118.371 56.8789 118.479 57.3623 118.693 57.6357C118.918 57.9092 119.24 58.0459 119.66 58.0459C120.061 58.0459 120.5 57.9336 120.979 57.709C121.623 57.4062 122.565 56.791 123.806 55.8633ZM118.679 53.7393C120.251 53.0361 121.433 52.2793 122.224 51.4688C122.761 50.9023 123.029 50.3408 123.029 49.7842C123.029 49.3643 122.917 49.0322 122.692 48.7881C122.478 48.5342 122.194 48.4072 121.843 48.4072C121.482 48.4072 121.13 48.5439 120.788 48.8174C120.329 49.1787 119.943 49.7256 119.631 50.458C119.182 51.5322 118.864 52.626 118.679 53.7393ZM137.605 56.5078L138.015 57.0645C136.706 58.168 135.734 58.9004 135.1 59.2617C134.221 59.7598 133.527 60.0088 133.02 60.0088C132.785 60.0088 132.595 59.9404 132.448 59.8037C132.302 59.6768 132.229 59.5303 132.229 59.3643C132.229 59.1982 132.282 58.9248 132.39 58.5439L132.902 56.7568C131.731 58.0166 130.754 58.8711 129.973 59.3203C129.191 59.7695 128.488 59.9941 127.863 59.9941C127.346 59.9941 126.911 59.7695 126.56 59.3203C126.208 58.8613 126.032 58.1924 126.032 57.3135C126.032 55.9268 126.506 54.335 127.453 52.5381C128.41 50.7314 129.47 49.3984 130.632 48.5391C131.804 47.6699 132.873 47.2354 133.84 47.2354C134.055 47.2354 134.377 47.2695 134.807 47.3379C135.266 45.4336 135.705 44.0469 136.125 43.1777C136.545 42.2988 137.087 41.542 137.751 40.9072C138.415 40.2725 139.172 39.7842 140.022 39.4424C140.881 39.0908 141.682 38.915 142.424 38.915C142.815 38.915 143.127 39.0176 143.361 39.2227C143.596 39.4277 143.713 39.6865 143.713 39.999C143.713 40.3018 143.606 40.5508 143.391 40.7461C143.176 40.9316 142.883 41.0244 142.512 41.0244C142.268 41.0244 141.814 40.9756 141.149 40.8779C140.485 40.7803 140.031 40.7314 139.787 40.7314C139.445 40.7314 139.143 40.8389 138.879 41.0537C138.625 41.2588 138.381 41.708 138.147 42.4014C137.99 42.8408 137.634 44.2422 137.077 46.6055L134.997 55.4531C134.753 56.498 134.631 57.1914 134.631 57.5332C134.631 57.9043 134.773 58.0898 135.056 58.0898C135.232 58.0898 135.437 58.0264 135.671 57.8994C136.003 57.7139 136.648 57.25 137.605 56.5078ZM134.499 48.9492C133.718 48.7734 133.166 48.6855 132.844 48.6855C132.19 48.6855 131.55 48.9443 130.925 49.4619C130.3 49.9697 129.694 50.9609 129.108 52.4355C128.532 53.9102 128.244 55.1943 128.244 56.2881C128.244 56.7861 128.376 57.1963 128.64 57.5186C128.913 57.8311 129.221 57.9873 129.563 57.9873C129.973 57.9873 130.441 57.8066 130.969 57.4453C131.721 56.9082 132.316 56.2539 132.756 55.4824C133.02 54.9941 133.376 53.7979 133.825 51.8936L134.499 48.9492Z" fill="#83C5BE"/>
<path d="M64.9483 50.6484L64.5897 50.9968L64.9591 51.3772L65.3171 50.986L64.9483 50.6484ZM64.4503 50.1357L64.1053 49.7738L63.7399 50.1221L64.0916 50.4841L64.4503 50.1357ZM69.9288 48.085L70.4167 48.1942L70.4174 48.1912L69.9288 48.085ZM69.2696 51.0293L68.7817 50.9201L68.3661 52.7765L69.6407 51.3643L69.2696 51.0293ZM73.0196 47.9385L72.7555 47.5139L72.7512 47.5166L73.0196 47.9385ZM76.0811 49.6377L76.5667 49.7572L76.5683 49.7501L76.0811 49.6377ZM74.8506 53.7832L75.3277 53.9329L75.328 53.9321L74.8506 53.7832ZM75.5831 57.5186L75.9182 57.8896L75.9194 57.8885L75.5831 57.5186ZM76.8721 56.4346L77.2828 56.1494L76.9827 55.7172L76.5664 56.0389L76.8721 56.4346ZM77.2383 56.9619L77.6096 57.2968L77.8752 57.0024L77.649 56.6767L77.2383 56.9619ZM74.4405 59.3643L74.1751 58.9405L74.1725 58.9422L74.4405 59.3643ZM72.0528 59.54L72.4529 59.24L72.4475 59.2331L72.0528 59.54ZM73.3712 51.7471L73.8483 51.8967L73.8513 51.8871L73.8539 51.8773L73.3712 51.7471ZM71.8184 49.7549L72.0937 50.1723L72.0958 50.1709L71.8184 49.7549ZM69.5186 51.8936L69.1186 51.5935L69.1168 51.5959L69.5186 51.8936ZM68.5372 54.4131L69.0242 54.5261L69.0246 54.5246L68.5372 54.4131ZM67.3506 59.5254V60.0254H67.7479L67.8377 59.6384L67.3506 59.5254ZM65.168 59.5254L64.6865 59.3906L64.5088 60.0254H65.168V59.5254ZM66.2374 55.3213L65.7505 55.2073L65.7497 55.2109L66.2374 55.3213ZM67.5411 49.7549L68.028 49.8689L68.0297 49.8611L67.5411 49.7549ZM66.6475 49.1836L66.9234 49.6008L66.9343 49.5932L66.6475 49.1836ZM65.3069 50.3L64.8089 49.7873L64.0916 50.4841L64.5897 50.9968L65.3069 50.3ZM64.7952 50.4977C66.0393 49.3119 66.9939 48.5618 67.6714 48.2052L67.2057 47.3202C66.3988 47.7449 65.3612 48.5768 64.1053 49.7738L64.7952 50.4977ZM67.6714 48.2052C68.3799 47.8323 68.9309 47.6768 69.3428 47.6768V46.6768C68.7001 46.6768 67.9816 46.9119 67.2057 47.3202L67.6714 48.2052ZM69.3428 47.6768C69.482 47.6768 69.5242 47.7071 69.5262 47.7086L70.1262 46.9086C69.8939 46.7344 69.6139 46.6768 69.3428 46.6768V47.6768ZM69.5262 47.7086C69.543 47.7211 69.5356 47.7199 69.5239 47.6995C69.518 47.6891 69.5121 47.6757 69.5079 47.6599C69.5037 47.6441 69.502 47.6291 69.502 47.6162H70.502C70.502 47.3026 70.3344 47.0647 70.1262 46.9086L69.5262 47.7086ZM69.502 47.6162C69.502 47.6159 69.502 47.6181 69.5017 47.6234C69.5014 47.6285 69.5009 47.6357 69.4999 47.6452C69.498 47.6644 69.4948 47.6897 69.4897 47.7221C69.4795 47.7873 69.4634 47.8722 69.4402 47.9787L70.4174 48.1912C70.4654 47.9701 70.502 47.7648 70.502 47.6162H69.502ZM69.4409 47.9757L68.7817 50.9201L69.7575 51.1385L70.4167 48.1942L69.4409 47.9757ZM69.6407 51.3643C70.6014 50.3001 71.8148 49.2978 73.288 48.3603L72.7512 47.5166C71.2165 48.4932 69.93 49.5515 68.8984 50.6943L69.6407 51.3643ZM73.2837 48.3631C74.0611 47.8795 74.622 47.6914 74.9971 47.6914V46.6914C74.3371 46.6914 73.5797 47.0013 72.7555 47.5139L73.2837 48.3631ZM74.9971 47.6914C75.2614 47.6914 75.4119 47.7704 75.5153 47.8879L76.266 47.2273C75.9397 46.8565 75.4946 46.6914 74.9971 46.6914V47.6914ZM75.5153 47.8879C75.6222 48.0094 75.713 48.2252 75.713 48.6123H76.713C76.713 48.0814 76.5889 47.5942 76.266 47.2273L75.5153 47.8879ZM75.713 48.6123C75.713 48.8681 75.6756 49.1712 75.5939 49.5253L76.5683 49.7501C76.6624 49.3425 76.713 48.962 76.713 48.6123H75.713ZM75.5956 49.5182C75.4437 50.1352 75.0386 51.5016 74.3733 53.6343L75.328 53.9321C75.9908 51.807 76.406 50.4097 76.5666 49.7572L75.5956 49.5182ZM74.3736 53.6335C74.0592 54.6357 73.821 55.4771 73.6609 56.1549C73.5032 56.8229 73.4131 57.3645 73.4131 57.7529H74.4131C74.4131 57.487 74.4794 57.0399 74.6341 56.3847C74.7866 55.7392 75.0171 54.9229 75.3277 53.9329L74.3736 53.6335ZM73.4131 57.7529C73.4131 57.9819 73.4446 58.2368 73.5723 58.4496L74.4298 57.9351C74.4376 57.9481 74.4321 57.9448 74.4254 57.9112C74.4188 57.8784 74.4131 57.8271 74.4131 57.7529H73.4131ZM73.5723 58.4496C73.7146 58.6869 73.9545 58.8389 74.2501 58.8389V57.8389C74.275 57.8389 74.3168 57.8454 74.3607 57.8713C74.4034 57.8963 74.424 57.9254 74.4298 57.9351L73.5723 58.4496ZM74.2501 58.8389C74.5335 58.8389 74.8134 58.71 75.0578 58.5596C75.3162 58.4006 75.604 58.1735 75.9182 57.8896L75.2479 57.1475C74.9567 57.4105 74.7196 57.5935 74.5337 57.708C74.3337 57.831 74.2498 57.8389 74.2501 57.8389V58.8389ZM75.9194 57.8885C76.3399 57.5063 76.7594 57.1536 77.1779 56.8302L76.5664 56.0389C76.1255 56.3796 75.6856 56.7496 75.2467 57.1486L75.9194 57.8885ZM76.4614 56.7198L76.8277 57.2471L77.649 56.6767L77.2828 56.1494L76.4614 56.7198ZM76.8671 56.627C75.9943 57.5946 75.0965 58.3635 74.1751 58.9405L74.7059 59.788C75.7181 59.1541 76.6855 58.3214 77.6096 57.2968L76.8671 56.627ZM74.1725 58.9422C73.5809 59.3178 73.1725 59.4502 72.9171 59.4502V60.4502C73.4623 60.4502 74.0697 60.192 74.7085 59.7864L74.1725 58.9422ZM72.9171 59.4502C72.6877 59.4502 72.5544 59.3756 72.4528 59.24L71.6528 59.84C71.9613 60.2514 72.4042 60.4502 72.9171 60.4502V59.4502ZM72.4475 59.2331C72.3472 59.1041 72.2452 58.8102 72.2452 58.2363H71.2452C71.2452 58.8734 71.3482 59.4486 71.6581 59.847L72.4475 59.2331ZM72.2452 58.2363C72.2452 57.8711 72.3649 57.1685 72.6367 56.0837C72.9043 55.0155 73.3076 53.6209 73.8483 51.8967L72.8941 51.5975C72.3507 53.3303 71.941 54.7457 71.6667 55.8406C71.3965 56.9189 71.2452 57.7324 71.2452 58.2363H72.2452ZM73.8539 51.8773C74.0205 51.2598 74.1468 50.7661 74.2318 50.3986C74.3109 50.0566 74.3692 49.7652 74.3692 49.5938H73.3692C73.3692 49.5899 73.3693 49.6006 73.3653 49.6329C73.3615 49.6629 73.3553 49.7032 73.346 49.7552C73.3273 49.8592 73.2981 49.9978 73.2576 50.1732C73.1765 50.5235 73.0538 51.0039 72.8884 51.6168L73.8539 51.8773ZM74.3692 49.5938C74.3692 49.3398 74.2892 49.0663 74.0548 48.8699C73.8374 48.6877 73.5655 48.6396 73.3272 48.6396V49.6396C73.3843 49.6396 73.4162 49.6458 73.4298 49.6496C73.4422 49.653 73.4315 49.6522 73.4126 49.6364C73.4034 49.6287 73.3943 49.6191 73.3865 49.6081C73.3787 49.5972 73.3737 49.5873 73.3707 49.5799C73.3651 49.5657 73.3692 49.5667 73.3692 49.5938H74.3692ZM73.3272 48.6396C72.783 48.6396 72.1762 48.9154 71.5411 49.3389L72.0958 50.1709C72.6911 49.774 73.0901 49.6396 73.3272 49.6396V48.6396ZM71.5431 49.3375C70.5806 49.9723 69.7708 50.724 69.1186 51.5936L69.9186 52.1936C70.4969 51.4225 71.2203 50.7484 72.0937 50.1723L71.5431 49.3375ZM69.1168 51.5959C68.6644 52.2068 68.3185 53.1273 68.0498 54.3016L69.0246 54.5246C69.2832 53.3942 69.5916 52.635 69.9204 52.1912L69.1168 51.5959ZM68.0501 54.3L66.8636 59.4123L67.8377 59.6384L69.0242 54.5261L68.0501 54.3ZM67.3506 59.0254H65.168V60.0254H67.3506V59.0254ZM65.6495 59.6602C66.0617 58.1881 66.4203 56.7786 66.725 55.4316L65.7497 55.2109C65.449 56.5398 65.0947 57.933 64.6865 59.3906L65.6495 59.6602ZM66.7242 55.4353L68.0279 49.8689L67.0543 49.6409L65.7505 55.2073L66.7242 55.4353ZM68.0297 49.8611C68.0787 49.6357 68.1143 49.428 68.1143 49.2715H67.1143C67.1143 49.3102 67.1011 49.4248 67.0525 49.6487L68.0297 49.8611ZM68.1143 49.2715C68.1143 49.0925 68.0838 48.8675 67.9429 48.6772C67.7811 48.4589 67.5434 48.376 67.3214 48.376V49.376C67.3144 49.376 67.2846 49.3748 67.2443 49.3567C67.2012 49.3373 67.1647 49.3067 67.1393 49.2725C67.1277 49.2568 67.1205 49.2431 67.1162 49.2335C67.112 49.2241 67.1106 49.2185 67.1106 49.2183C67.1105 49.2181 67.1115 49.2222 67.1125 49.2314C67.1135 49.2406 67.1143 49.2538 67.1143 49.2715H68.1143ZM67.3214 48.376C67.142 48.376 66.9718 48.4324 66.8281 48.498C66.6788 48.5662 66.5222 48.661 66.3608 48.774L66.9343 49.5932C67.0658 49.5011 67.168 49.4421 67.2434 49.4077C67.3242 49.3708 67.3445 49.376 67.3214 49.376V48.376ZM66.3717 48.7665C65.7296 49.1912 65.1324 49.7068 64.5795 50.3109L65.3171 50.986C65.8189 50.4378 66.3545 49.9768 66.9233 49.6007L66.3717 48.7665ZM84.4014 56.0098L84.7649 55.6665L84.416 55.2969L84.0522 55.6519L84.4014 56.0098ZM84.8995 56.5371L85.2736 56.8688L85.5771 56.5264L85.263 56.1938L84.8995 56.5371ZM82.1895 58.8955L82.4705 59.3091L82.4713 59.3085L82.1895 58.8955ZM78.879 59.5986L79.2632 59.2785L79.2563 59.2705L78.879 59.5986ZM79.4942 53.7979L79.9797 53.9173L79.9797 53.9173L79.4942 53.7979ZM81.0762 47.3672L80.5909 47.2469L80.5907 47.2477L81.0762 47.3672ZM82.5264 42.6943L82.0799 42.4693L82.0781 42.4729L82.5264 42.6943ZM85.0899 39.8965L84.8338 39.4671L84.8321 39.4681L85.0899 39.8965ZM89.587 39.208L89.2577 39.5843L89.266 39.5916L89.2746 39.5984L89.587 39.208ZM89.6016 40.7021L89.9218 41.0864L89.9309 41.0784L89.6016 40.7021ZM87.3311 40.8486L87.4206 40.3566L87.4133 40.3554L87.3311 40.8486ZM85.1192 40.9805L84.8046 40.5918L84.8004 40.5953L85.1192 40.9805ZM84.3428 42.46L83.8654 42.3112L83.8638 42.3169L84.3428 42.46ZM83.2296 46.9131L83.7162 47.0281L83.7165 47.0268L83.2296 46.9131ZM81.7794 53.0508L81.2928 52.9358L81.2926 52.9364L81.7794 53.0508ZM81.9698 57.958L82.233 58.3831L82.2352 58.3817L81.9698 57.958ZM84.0379 56.3531L84.536 56.8804L85.263 56.1938L84.7649 55.6665L84.0379 56.3531ZM84.5253 56.2055C83.7935 57.0311 82.922 57.7905 81.9077 58.4825L82.4713 59.3085C83.5468 58.5748 84.482 57.7619 85.2736 56.8688L84.5253 56.2055ZM81.9086 58.4819C80.8954 59.1701 80.1452 59.4502 79.626 59.4502V60.4502C80.4545 60.4502 81.4134 60.0271 82.4705 59.3091L81.9086 58.4819ZM79.626 59.4502C79.473 59.4502 79.3643 59.3999 79.2631 59.2785L78.4949 59.9187C78.7843 60.2661 79.1736 60.4502 79.626 60.4502V59.4502ZM79.2563 59.2705C79.1639 59.1643 79.086 58.9829 79.086 58.6611H78.086C78.086 59.1401 78.2034 59.5838 78.5017 59.9267L79.2563 59.2705ZM79.086 58.6611C79.086 57.9517 79.3709 56.3919 79.9797 53.9173L79.0087 53.6784C78.4066 56.1257 78.086 57.808 78.086 58.6611H79.086ZM79.9797 53.9173L81.5618 47.4866L80.5907 47.2477L79.0087 53.6784L79.9797 53.9173ZM81.5615 47.4875C82.139 45.1582 82.6115 43.6514 82.9747 42.9157L82.0781 42.4729C81.6602 43.3193 81.1658 44.9277 80.5909 47.2469L81.5615 47.4875ZM82.9729 42.9194C83.5379 41.7985 84.3287 40.9381 85.3477 40.3249L84.8321 39.4681C83.6441 40.183 82.7259 41.1878 82.0799 42.4693L82.9729 42.9194ZM85.346 40.3259C86.3862 39.7055 87.4701 39.4004 88.6055 39.4004V38.4004C87.28 38.4004 86.0202 38.7594 84.8338 39.4671L85.346 40.3259ZM88.6055 39.4004C88.9469 39.4004 89.1421 39.4831 89.2577 39.5843L89.9162 38.8317C89.5631 38.5227 89.104 38.4004 88.6055 38.4004V39.4004ZM89.2746 39.5984C89.4142 39.7101 89.4532 39.8116 89.4532 39.9258H90.4532C90.4532 39.4736 90.248 39.0965 89.8993 38.8176L89.2746 39.5984ZM89.4532 39.9258C89.4532 40.0947 89.3978 40.2161 89.2724 40.3259L89.9309 41.0784C90.2742 40.778 90.4532 40.3819 90.4532 39.9258H89.4532ZM89.2815 40.318C89.171 40.4101 88.9621 40.4951 88.5762 40.4951V41.4951C89.0888 41.4951 89.5635 41.3848 89.9217 41.0863L89.2815 40.318ZM88.5762 40.4951C88.3287 40.4951 87.9488 40.4527 87.4206 40.3567L87.2417 41.3406C87.7877 41.4398 88.2378 41.4951 88.5762 41.4951V40.4951ZM87.4133 40.3554C86.9223 40.2736 86.4599 40.2314 86.0274 40.2314V41.2314C86.3957 41.2314 86.8025 41.2674 87.2489 41.3418L87.4133 40.3554ZM86.0274 40.2314C85.5691 40.2314 85.1345 40.3248 84.8046 40.5918L85.4338 41.3691C85.5141 41.3041 85.6849 41.2314 86.0274 41.2314V40.2314ZM84.8004 40.5953C84.3955 40.9304 84.1025 41.5509 83.8655 42.3112L84.8202 42.6087C85.052 41.8651 85.2765 41.4993 85.438 41.3657L84.8004 40.5953ZM83.8638 42.3169C83.6341 43.0857 83.2597 44.5847 82.7426 46.7994L83.7165 47.0268C84.2345 44.8079 84.6024 43.3381 84.8219 42.6031L83.8638 42.3169ZM82.743 46.7981L81.2928 52.9358L82.266 53.1658L83.7162 47.0281L82.743 46.7981ZM81.2926 52.9364C80.9312 54.4749 80.6598 55.6474 80.4786 56.453C80.388 56.8555 80.3196 57.1685 80.2735 57.3905C80.2506 57.5012 80.2326 57.5922 80.2201 57.6618C80.2115 57.7103 80.1954 57.799 80.1954 57.8701H81.1954C81.1954 57.907 81.1906 57.9157 81.2045 57.8381C81.2146 57.7816 81.2305 57.7007 81.2527 57.5935C81.297 57.3797 81.364 57.0732 81.4542 56.6725C81.6343 55.8716 81.9049 54.7028 82.2661 53.1651L81.2926 52.9364ZM80.1954 57.8701C80.1954 58.0712 80.2288 58.3121 80.3736 58.5135C80.5403 58.7454 80.7898 58.8389 81.0323 58.8389V57.8389C81.0338 57.8389 81.0591 57.8392 81.0953 57.856C81.1341 57.874 81.1654 57.9017 81.1856 57.9299C81.2036 57.955 81.2053 57.9696 81.2027 57.9587C81.2 57.9476 81.1954 57.9199 81.1954 57.8701H80.1954ZM81.0323 58.8389C81.2304 58.8389 81.4302 58.7823 81.616 58.7069C81.8067 58.6294 82.0133 58.5192 82.233 58.3831L81.7066 57.5329C81.5162 57.6508 81.3614 57.7309 81.2396 57.7804C81.1129 57.8319 81.049 57.8389 81.0323 57.8389V58.8389ZM82.2352 58.3817C83.0809 57.8519 83.9191 57.1791 84.7506 56.3676L84.0522 55.6519C83.2626 56.4225 82.4798 57.0485 81.7043 57.5343L82.2352 58.3817ZM85.4708 50.1943L85.0575 50.4757L85.3474 50.9015L85.7643 50.5991L85.4708 50.1943ZM85.002 49.5059L84.7221 49.0916L84.3063 49.3725L84.5887 49.7873L85.002 49.5059ZM86.086 48.7734L86.3659 49.1877L86.3686 49.1859L86.086 48.7734ZM88.3126 47.3818L88.5279 47.8331L88.5289 47.8326L88.3126 47.3818ZM89.5723 47.5576L89.1803 47.868L89.1805 47.8682L89.5723 47.5576ZM91.7403 51.9521L91.2637 52.1034L91.264 52.1042L91.7403 51.9521ZM92.5899 58.3242L92.0904 58.303L91.9986 60.4596L93.0292 58.563L92.5899 58.3242ZM94.8165 49.6084L94.3322 49.7329L94.3337 49.7387L94.8165 49.6084ZM94.8165 47.4404L94.4628 47.0867L94.4535 47.0966L94.8165 47.4404ZM96.3253 47.5576L95.9305 47.8647L95.9376 47.8735L96.3253 47.5576ZM95.7833 53.4023L96.2612 53.5492L96.2614 53.5485L95.7833 53.4023ZM93.0587 59.4668L92.6247 59.2185L92.6243 59.2192L93.0587 59.4668ZM89.6749 64.2715L89.318 63.9213L89.3147 63.9247L89.6749 64.2715ZM86.7159 66.5273L86.5034 66.0747L86.4979 66.0774L86.7159 66.5273ZM82.5704 66.8496L82.8723 66.4511L82.8656 66.446L82.8587 66.4411L82.5704 66.8496ZM82.4532 65.2383L82.1389 64.8492L82.1302 64.8566L82.4532 65.2383ZM84.8409 65.1211L84.9493 64.633L84.9485 64.6328L84.8409 65.1211ZM87.9903 64.5791L88.2903 64.9791L88.291 64.9786L87.9903 64.5791ZM90.1436 62.1328L89.7087 61.8862L89.7067 61.8896L90.1436 62.1328ZM90.3487 54.3691L89.8589 54.4696L89.8594 54.472L90.3487 54.3691ZM88.6788 50.0039L88.2688 50.2901L88.2727 50.2956L88.6788 50.0039ZM85.8841 49.9129L85.4153 49.2245L84.5887 49.7873L85.0575 50.4757L85.8841 49.9129ZM85.2819 49.9202L86.3659 49.1877L85.8061 48.3591L84.7221 49.0916L85.2819 49.9202ZM86.3686 49.1859C87.426 48.4614 88.1382 48.0191 88.5279 47.8331L88.0972 46.9306C87.6276 47.1547 86.8553 47.6402 85.8034 48.361L86.3686 49.1859ZM88.5289 47.8326C88.7262 47.7379 88.8762 47.7061 88.9864 47.7061V46.7061C88.6864 46.7061 88.3872 46.7914 88.0962 46.9311L88.5289 47.8326ZM88.9864 47.7061C88.9885 47.7061 89.0006 47.7054 89.0294 47.7227C89.062 47.7423 89.1139 47.7841 89.1803 47.868L89.9643 47.2473C89.729 46.95 89.4045 46.7061 88.9864 46.7061V47.7061ZM89.1805 47.8682C89.9904 48.8898 90.6894 50.2942 91.2637 52.1034L92.2169 51.8009C91.6194 49.9187 90.873 48.3934 89.9641 47.247L89.1805 47.8682ZM91.264 52.1042C91.836 53.8965 92.1192 55.6275 92.1192 57.2988H93.1192C93.1192 55.5132 92.8165 53.6796 92.2166 51.8001L91.264 52.1042ZM92.1192 57.2988C92.1192 57.5123 92.1098 57.8454 92.0904 58.303L93.0895 58.3455C93.109 57.8851 93.1192 57.5346 93.1192 57.2988H92.1192ZM93.0292 58.563C94.6887 55.5091 95.5655 53.0051 95.5655 51.0879H94.5655C94.5655 52.7449 93.7919 55.0652 92.1506 58.0855L93.0292 58.563ZM95.5655 51.0879C95.5655 50.6524 95.4697 50.1101 95.2992 49.4781L94.3337 49.7387C94.4952 50.3371 94.5655 50.7812 94.5655 51.0879H95.5655ZM95.3007 49.4839C95.1248 48.8 95.0528 48.3667 95.0528 48.1436H94.0528C94.0528 48.5064 94.1565 49.0497 94.3322 49.7329L95.3007 49.4839ZM95.0528 48.1436C95.0528 47.9733 95.1015 47.8666 95.1794 47.7843L94.4535 47.0966C94.1799 47.3853 94.0528 47.7474 94.0528 48.1436H95.0528ZM95.17 47.794C95.2575 47.7065 95.3579 47.6621 95.5049 47.6621V46.6621C95.1051 46.6621 94.7465 46.8033 94.4629 47.0869L95.17 47.794ZM95.5049 47.6621C95.6966 47.6621 95.8228 47.726 95.9306 47.8646L96.7199 47.2506C96.4176 46.8619 95.9968 46.6621 95.5049 46.6621V47.6621ZM95.9376 47.8735C96.0539 48.0162 96.1475 48.2634 96.1475 48.6855H97.1475C97.1475 48.1311 97.0263 47.6264 96.7129 47.2418L95.9376 47.8735ZM96.1475 48.6855C96.1475 49.8761 95.874 51.3953 95.3051 53.2562L96.2614 53.5485C96.8449 51.6399 97.1475 50.0146 97.1475 48.6855H96.1475ZM95.3053 53.2555C94.7425 55.0871 93.8513 57.0744 92.6247 59.2185L93.4927 59.7151C94.7465 57.5233 95.6717 55.4676 96.2612 53.5492L95.3053 53.2555ZM92.6243 59.2192C91.4025 61.3621 90.2995 62.9211 89.318 63.9213L90.0317 64.6217C91.101 63.5321 92.2538 61.8879 93.493 59.7144L92.6243 59.2192ZM89.3147 63.9247C88.3263 64.9511 87.3884 65.6593 86.5034 66.0747L86.9283 66.98C87.9575 66.4969 88.9922 65.7013 90.035 64.6183L89.3147 63.9247ZM86.4979 66.0774C85.6027 66.5111 84.7788 66.7158 84.0206 66.7158V67.7158C84.9616 67.7158 85.9346 67.4615 86.9339 66.9773L86.4979 66.0774ZM84.0206 66.7158C83.4249 66.7158 83.0696 66.6005 82.8723 66.4511L82.2684 67.2482C82.7157 67.587 83.3272 67.7158 84.0206 67.7158V66.7158ZM82.8587 66.4411C82.6258 66.2767 82.5723 66.1324 82.5723 66H81.5723C81.5723 66.5317 81.8509 66.9537 82.282 67.2581L82.8587 66.4411ZM82.5723 66C82.5723 65.875 82.6175 65.7542 82.7762 65.62L82.1302 64.8566C81.781 65.152 81.5723 65.5391 81.5723 66H82.5723ZM82.7674 65.6273C82.9076 65.514 83.1268 65.4307 83.4786 65.4307V64.4307C82.971 64.4307 82.5066 64.5524 82.139 64.8493L82.7674 65.6273ZM83.4786 65.4307C83.7569 65.4307 84.1697 65.4852 84.7333 65.6094L84.9485 64.6328C84.3597 64.5031 83.8643 64.4307 83.4786 64.4307V65.4307ZM84.7324 65.6092C85.3411 65.7445 85.8129 65.8262 86.1006 65.8262V64.8262C85.9391 64.8262 85.5711 64.7712 84.9493 64.633L84.7324 65.6092ZM86.1006 65.8262C86.8398 65.8262 87.573 65.5171 88.2903 64.9791L87.6903 64.1791C87.0795 64.6372 86.5529 64.8262 86.1006 64.8262V65.8262ZM88.291 64.9786C89.2522 64.2551 90.0175 63.3873 90.5805 62.376L89.7067 61.8896C89.215 62.7729 88.5448 63.536 87.6896 64.1796L88.291 64.9786ZM90.5786 62.3794C91.1528 61.3666 91.4493 60.3254 91.4493 59.2617H90.4493C90.4493 60.1316 90.2086 61.0044 89.7087 61.8862L90.5786 62.3794ZM91.4493 59.2617C91.4493 57.8584 91.2427 56.1912 90.838 54.2663L89.8594 54.472C90.2555 56.3557 90.4493 57.9502 90.4493 59.2617H91.4493ZM90.8385 54.2687C90.4409 52.3305 89.8653 50.7985 89.0848 49.7122L88.2727 50.2956C88.9376 51.2211 89.4752 52.5992 89.8589 54.4696L90.8385 54.2687ZM89.0888 49.7177C88.6863 49.1412 88.1691 48.7275 87.5215 48.7275V49.7275C87.6943 49.7275 87.9486 49.8315 88.2688 50.2901L89.0888 49.7177ZM87.5215 48.7275C87.1781 48.7275 86.8107 48.8407 86.4368 49.017C86.0572 49.1959 85.6365 49.4564 85.1772 49.7896L85.7643 50.5991C86.1937 50.2877 86.5591 50.0649 86.8632 49.9215C87.1728 49.7755 87.3865 49.7275 87.5215 49.7275V48.7275ZM97.9219 50.5898L97.5219 50.8898L97.859 51.3393L98.2663 50.9523L97.9219 50.5898ZM97.4825 50.0039L97.1289 49.6504L96.8223 49.957L97.0825 50.3039L97.4825 50.0039ZM102.741 47.3086L102.407 47.6802L102.416 47.6881L102.425 47.6956L102.741 47.3086ZM102.668 48.8027L102.187 48.6676L102.186 48.6707L102.668 48.8027ZM102.199 50.751L101.708 50.6607L101.413 52.2632L102.556 51.1016L102.199 50.751ZM108.117 50.3701L107.638 50.2277L107.05 52.2069L108.478 50.716L108.117 50.3701ZM111.018 47.9092L111.27 48.3411L111.273 48.3388L111.018 47.9092ZM113.01 53.3145L113.488 53.4603L113.489 53.4588L113.01 53.3145ZM112.805 58.1631L113.082 58.5791L113.088 58.5749L113.095 58.5704L112.805 58.1631ZM114.577 56.6396L114.946 56.3018L114.593 55.9168L114.224 56.2861L114.577 56.6396ZM115.061 57.167L115.375 57.5556L115.788 57.2211L115.429 56.8291L115.061 57.167ZM113.903 58.1924L114.238 58.564L114.241 58.5615L113.903 58.1924ZM112.292 59.5107L112.545 59.9421L112.549 59.9395L112.292 59.5107ZM110.08 59.5693L110.477 59.2651L110.472 59.2586L110.08 59.5693ZM109.948 56.7422L110.437 56.849L110.437 56.8475L109.948 56.7422ZM111.149 52.4941L111.628 52.6388L111.628 52.6386L111.149 52.4941ZM110.476 49.3594L110.22 48.9297L110.217 48.9315L110.476 49.3594ZM108.366 51.2197L107.971 50.9139L107.97 50.9149L108.366 51.2197ZM107.341 53.6367L107.823 53.7676L107.824 53.765L107.341 53.6367ZM105.876 59.54V60.04H106.281L106.365 59.6435L105.876 59.54ZM103.796 59.54L103.31 59.4216L103.159 60.04H103.796V59.54ZM105.979 50.5898L106.464 50.7083L106.465 50.7076L105.979 50.5898ZM106.096 49.125L105.722 49.4572L105.732 49.4682L105.742 49.4786L106.096 49.125ZM104.528 49.6084L104.82 50.0147L104.825 50.0109L104.528 49.6084ZM102.434 51.6299L102.016 51.3554L102.015 51.3569L102.434 51.6299ZM101.35 54.5889L100.862 54.4777L100.862 54.4778L101.35 54.5889ZM100.222 59.54V60.04H100.621L100.709 59.6511L100.222 59.54ZM98.127 59.54L97.6405 59.4248L97.4947 60.04H98.127V59.54ZM99.7823 52.5527L99.2963 52.4353L99.2958 52.4375L99.7823 52.5527ZM98.3219 50.2898L97.8825 49.7039L97.0825 50.3039L97.5219 50.8898L98.3219 50.2898ZM97.836 50.3575C98.7802 49.4133 99.6585 48.7359 100.47 48.3074L100.003 47.4231C99.076 47.9126 98.1184 48.6609 97.1289 49.6504L97.836 50.3575ZM100.47 48.3074C101.324 47.8562 101.917 47.6768 102.287 47.6768V46.6768C101.661 46.6768 100.887 46.9563 100.003 47.4231L100.47 48.3074ZM102.287 47.6768C102.356 47.6768 102.396 47.6843 102.415 47.6899C102.433 47.695 102.424 47.6958 102.407 47.6802L103.076 46.9369C102.847 46.7308 102.549 46.6768 102.287 46.6768V47.6768ZM102.425 47.6956C102.423 47.6944 102.419 47.691 102.415 47.6853C102.411 47.6795 102.407 47.6733 102.404 47.6674C102.399 47.6551 102.402 47.6542 102.402 47.6748H103.402C103.402 47.3899 103.297 47.1172 103.058 46.9216L102.425 47.6956ZM102.402 47.6748C102.402 47.79 102.346 48.1 102.187 48.6676L103.149 48.9379C103.303 48.3922 103.402 47.9502 103.402 47.6748H102.402ZM102.186 48.6707C101.96 49.4962 101.799 50.1615 101.708 50.6607L102.691 50.8413C102.775 50.3834 102.927 49.7499 103.15 48.9348L102.186 48.6707ZM102.556 51.1016C103.715 49.9229 104.722 49.0558 105.578 48.4867C106.445 47.9101 107.102 47.6768 107.575 47.6768V46.6768C106.808 46.6768 105.949 47.0391 105.024 47.6539C104.088 48.2762 103.027 49.1963 101.843 50.4004L102.556 51.1016ZM107.575 47.6768C107.808 47.6768 107.901 47.7381 107.944 47.7837L108.671 47.0971C108.382 46.7912 107.987 46.6768 107.575 46.6768V47.6768ZM107.944 47.7837C107.984 47.8257 108.057 47.9517 108.057 48.2754H109.057C109.057 47.8374 108.964 47.4067 108.671 47.0971L107.944 47.7837ZM108.057 48.2754C108.057 48.6043 107.932 49.2387 107.638 50.2277L108.597 50.5125C108.889 49.5289 109.057 48.7668 109.057 48.2754H108.057ZM108.478 50.716C109.578 49.5677 110.508 48.7855 111.27 48.3411L110.766 47.4773C109.887 47.9899 108.883 48.8483 107.756 50.0242L108.478 50.716ZM111.273 48.3388C112.083 47.8567 112.622 47.6768 112.937 47.6768V46.6768C112.333 46.6768 111.593 46.9851 110.762 47.4795L111.273 48.3388ZM112.937 47.6768C113.248 47.6768 113.421 47.7628 113.528 47.8743L114.25 47.1824C113.907 46.8251 113.445 46.6768 112.937 46.6768V47.6768ZM113.528 47.8743C113.627 47.9779 113.726 48.1892 113.726 48.6123H114.726C114.726 48.0588 114.6 47.5474 114.25 47.1824L113.528 47.8743ZM113.726 48.6123C113.726 48.8529 113.685 49.1579 113.593 49.5339L114.565 49.7708C114.669 49.346 114.726 48.9577 114.726 48.6123H113.726ZM113.593 49.5339C113.5 49.9178 113.148 51.1222 112.531 53.1701L113.489 53.4588C114.102 51.4247 114.463 50.1876 114.565 49.7708L113.593 49.5339ZM112.532 53.1686C112.145 54.4363 111.853 55.4541 111.657 56.2192C111.468 56.9602 111.353 57.5223 111.353 57.8408H112.353C112.353 57.671 112.43 57.2346 112.626 56.4669C112.816 55.7232 113.103 54.7219 113.488 53.4603L112.532 53.1686ZM111.353 57.8408C111.353 58.0629 111.396 58.3223 111.569 58.5322C111.757 58.7607 112.021 58.8389 112.263 58.8389V57.8389C112.244 57.8389 112.25 57.8359 112.271 57.8443C112.281 57.8485 112.294 57.8551 112.307 57.8647C112.32 57.8744 112.332 57.8853 112.341 57.8965C112.36 57.9192 112.363 57.9341 112.36 57.9264C112.358 57.9175 112.353 57.8911 112.353 57.8408H111.353ZM112.263 58.8389C112.56 58.8389 112.836 58.7432 113.082 58.5791L112.527 57.7471C112.422 57.8173 112.336 57.8389 112.263 57.8389V58.8389ZM113.095 58.5704C113.698 58.1412 114.31 57.6144 114.931 56.9932L114.224 56.2861C113.634 56.8758 113.064 57.3647 112.515 57.7558L113.095 58.5704ZM114.209 56.9775L114.692 57.5049L115.429 56.8291L114.946 56.3018L114.209 56.9775ZM114.746 56.7784C114.527 56.9553 114.131 57.3071 113.566 57.8233L114.241 58.5615C114.809 58.0425 115.184 57.7107 115.375 57.5556L114.746 56.7784ZM113.569 57.8207C112.781 58.53 112.279 58.9353 112.035 59.082L112.549 59.9395C112.891 59.7346 113.463 59.261 114.238 58.564L113.569 57.8207ZM112.039 59.0794C111.503 59.3935 111.117 59.5088 110.857 59.5088V60.5088C111.378 60.5088 111.948 60.292 112.545 59.9421L112.039 59.0794ZM110.857 59.5088C110.759 59.5088 110.634 59.47 110.477 59.2651L109.683 59.8736C109.975 60.2546 110.368 60.5088 110.857 60.5088V59.5088ZM110.472 59.2586C110.341 59.0935 110.243 58.8226 110.243 58.3828H109.243C109.243 58.9586 109.37 59.4788 109.688 59.88L110.472 59.2586ZM110.243 58.3828C110.243 57.9603 110.305 57.4507 110.437 56.849L109.46 56.6353C109.318 57.2837 109.243 57.8678 109.243 58.3828H110.243ZM110.437 56.8475C110.569 56.2366 110.962 54.8417 111.628 52.6388L110.671 52.3495C110.008 54.5412 109.601 55.9782 109.46 56.6369L110.437 56.8475ZM111.628 52.6386C111.878 51.81 112.068 51.1383 112.195 50.6263C112.317 50.1352 112.397 49.7381 112.397 49.4912H111.397C111.397 49.5958 111.351 49.8751 111.225 50.3849C111.103 50.8739 110.919 51.5279 110.671 52.3497L111.628 52.6386ZM112.397 49.4912C112.397 49.2624 112.347 48.9975 112.162 48.7869C111.965 48.5643 111.698 48.4932 111.457 48.4932V49.4932C111.484 49.4932 111.486 49.4972 111.473 49.492C111.466 49.4893 111.455 49.4845 111.444 49.4767C111.432 49.4687 111.421 49.4591 111.412 49.4485C111.392 49.4265 111.388 49.4103 111.389 49.4144C111.391 49.4201 111.397 49.4434 111.397 49.4912H112.397ZM111.457 48.4932C111.072 48.4932 110.646 48.6759 110.22 48.9297L110.731 49.789C111.125 49.5546 111.354 49.4932 111.457 49.4932V48.4932ZM110.217 48.9315C109.328 49.4693 108.577 50.1298 107.971 50.9139L108.762 51.5256C109.288 50.8448 109.944 50.2651 110.734 49.7872L110.217 48.9315ZM107.97 50.9149C107.519 51.5013 107.156 52.3831 106.858 53.5084L107.824 53.765C108.111 52.6833 108.432 51.9538 108.763 51.5246L107.97 50.9149ZM106.858 53.5058C106.203 55.9223 105.712 57.9001 105.387 59.4366L106.365 59.6435C106.685 58.1331 107.17 56.1754 107.823 53.7676L106.858 53.5058ZM105.876 59.04H103.796V60.04H105.876V59.04ZM104.282 59.6585L106.464 50.7083L105.493 50.4714L103.31 59.4216L104.282 59.6585ZM106.465 50.7076C106.543 50.3835 106.603 50.124 106.644 49.9311C106.679 49.7638 106.713 49.589 106.713 49.4766H105.713C105.713 49.4618 105.708 49.5213 105.665 49.7251C105.628 49.9034 105.57 50.1516 105.493 50.472L106.465 50.7076ZM106.713 49.4766C106.713 49.2432 106.654 48.9764 106.449 48.7714L105.742 49.4786C105.732 49.4683 105.724 49.4577 105.718 49.4482C105.713 49.4388 105.71 49.432 105.709 49.4296C105.709 49.4273 105.71 49.4295 105.711 49.4374C105.712 49.4454 105.713 49.4581 105.713 49.4766H106.713ZM106.469 48.7928C106.274 48.5728 106.01 48.4932 105.759 48.4932V49.4932C105.783 49.4932 105.784 49.4968 105.771 49.4917C105.764 49.4892 105.756 49.4849 105.746 49.4784C105.737 49.4719 105.729 49.4645 105.722 49.4572L106.469 48.7928ZM105.759 48.4932C105.512 48.4932 105.26 48.5846 105.03 48.6998C104.79 48.8198 104.523 48.9914 104.232 49.2059L104.825 50.0109C105.091 49.8152 105.307 49.6793 105.477 49.5942C105.657 49.5043 105.742 49.4932 105.759 49.4932V48.4932ZM104.237 49.2021C103.244 49.9145 102.492 50.6303 102.016 51.3554L102.852 51.9043C103.235 51.3209 103.88 50.689 104.82 50.0147L104.237 49.2021ZM102.015 51.3569C101.547 52.0752 101.17 53.1294 100.862 54.4777L101.837 54.7C102.135 53.3921 102.481 52.4737 102.853 51.9028L102.015 51.3569ZM100.862 54.4778L99.7342 59.429L100.709 59.6511L101.837 54.6999L100.862 54.4778ZM100.222 59.04H98.127V60.04H100.222V59.04ZM98.6135 59.6553L100.269 52.668L99.2958 52.4375L97.6405 59.4248L98.6135 59.6553ZM100.268 52.6701C100.513 51.6585 100.697 50.8749 100.82 50.3211C100.881 50.0446 100.928 49.8221 100.96 49.6558C100.988 49.5115 101.015 49.3583 101.015 49.2568H100.015C100.015 49.2432 100.011 49.2933 99.9779 49.4676C99.9487 49.6199 99.9041 49.8314 99.8435 50.1042C99.7224 50.649 99.5402 51.4255 99.2963 52.4353L100.268 52.6701ZM101.015 49.2568C101.015 49.093 100.985 48.878 100.843 48.696C100.682 48.4907 100.453 48.4199 100.251 48.4199V49.4199C100.243 49.4199 100.212 49.4186 100.17 49.401C100.126 49.3821 100.085 49.3511 100.055 49.3123C100 49.2426 100.015 49.1961 100.015 49.2568H101.015ZM100.251 48.4199C100.046 48.4199 99.8464 48.491 99.6745 48.5737C99.4945 48.6603 99.2992 48.7823 99.0918 48.9311C98.6765 49.2288 98.1705 49.6641 97.5776 50.2273L98.2663 50.9523C98.8453 50.4023 99.3133 50.0027 99.6745 49.7438C99.8552 49.6142 99.9987 49.5274 100.108 49.4749C100.225 49.4184 100.266 49.4199 100.251 49.4199V48.4199ZM123.806 55.8633L124.206 55.5633L123.906 55.1638L123.506 55.4629L123.806 55.8633ZM124.289 56.5078L124.634 56.8701L124.956 56.5636L124.689 56.2078L124.289 56.5078ZM116.54 59.2178L116.144 59.5231L116.148 59.5281L116.54 59.2178ZM117.902 50.7217L118.329 50.9831L118.33 50.9808L117.902 50.7217ZM124.597 47.7188L124.248 48.0772L124.258 48.0865L124.597 47.7188ZM122.136 52.9336L122.383 53.3682L122.389 53.3649L122.136 52.9336ZM118.503 54.6768L118.297 54.2212L118.054 54.3313L118.01 54.5946L118.503 54.6768ZM118.693 57.6357L118.3 57.9447L118.307 57.9531L118.693 57.6357ZM120.979 57.709L121.191 58.1616L121.191 58.1615L120.979 57.709ZM118.679 53.7393L118.186 53.6571L118.032 54.576L118.883 54.1957L118.679 53.7393ZM122.224 51.4688L122.582 51.818L122.587 51.8128L122.224 51.4688ZM122.692 48.7881L122.311 49.1111L122.317 49.119L122.324 49.1266L122.692 48.7881ZM120.788 48.8174L121.097 49.2103L121.1 49.2078L120.788 48.8174ZM119.631 50.458L119.171 50.2618L119.17 50.2651L119.631 50.458ZM123.406 56.1633L123.889 56.8078L124.689 56.2078L124.206 55.5633L123.406 56.1633ZM123.945 56.1455C121.569 58.4047 119.641 59.4209 118.137 59.4209V60.4209C120.05 60.4209 122.224 59.1617 124.634 56.8701L123.945 56.1455ZM118.137 59.4209C117.569 59.4209 117.193 59.2364 116.932 58.9074L116.148 59.5281C116.63 60.1367 117.318 60.4209 118.137 60.4209V59.4209ZM116.936 58.9125C116.677 58.5758 116.498 57.9606 116.498 56.9619H115.498C115.498 58.0336 115.681 58.9223 116.144 59.523L116.936 58.9125ZM116.498 56.9619C116.498 54.9784 117.099 52.9877 118.329 50.9831L117.476 50.4603C116.166 52.5963 115.498 54.7657 115.498 56.9619H116.498ZM118.33 50.9808C119.704 48.7123 121.271 47.6914 123.015 47.6914V46.6914C120.793 46.6914 118.952 48.024 117.475 50.4626L118.33 50.9808ZM123.015 47.6914C123.628 47.6914 124.011 47.846 124.248 48.0771L124.945 47.3604C124.46 46.8884 123.789 46.6914 123.015 46.6914V47.6914ZM124.258 48.0865C124.506 48.3149 124.653 48.6436 124.653 49.1396H125.653C125.653 48.4248 125.43 47.8062 124.935 47.351L124.258 48.0865ZM124.653 49.1396C124.653 49.6515 124.478 50.177 124.087 50.724L124.901 51.3053C125.389 50.6218 125.653 49.8973 125.653 49.1396H124.653ZM124.087 50.724C123.708 51.2545 122.993 51.8513 121.883 52.5022L122.389 53.3649C123.544 52.6877 124.401 52.0052 124.901 51.3053L124.087 50.724ZM121.889 52.499C121.346 52.8078 120.156 53.3795 118.297 54.2212L118.709 55.1323C120.56 54.2943 121.793 53.7039 122.383 53.3682L121.889 52.499ZM118.01 54.5946C117.918 55.146 117.871 55.6765 117.871 56.1855H118.871C118.871 55.7376 118.912 55.2622 118.996 54.759L118.01 54.5946ZM117.871 56.1855C117.871 56.8972 117.975 57.5303 118.3 57.9447L119.087 57.3268C118.982 57.1943 118.871 56.8607 118.871 56.1855H117.871ZM118.307 57.9531C118.645 58.3642 119.122 58.5459 119.66 58.5459V57.5459C119.359 57.5459 119.191 57.4542 119.08 57.3184L118.307 57.9531ZM119.66 58.5459C120.154 58.5459 120.666 58.4079 121.191 58.1616L120.766 57.2564C120.334 57.4593 119.968 57.5459 119.66 57.5459V58.5459ZM121.191 58.1615C121.885 57.8357 122.862 57.1938 124.105 56.2637L123.506 55.4629C122.269 56.3883 121.361 56.9768 120.766 57.2564L121.191 58.1615ZM118.883 54.1957C120.486 53.4789 121.73 52.6908 122.582 51.818L121.866 51.1195C121.136 51.8678 120.016 52.5934 118.475 53.2828L118.883 54.1957ZM122.587 51.8128C123.176 51.1911 123.529 50.5127 123.529 49.7842H122.529C122.529 50.169 122.346 50.6136 121.861 51.1247L122.587 51.8128ZM123.529 49.7842C123.529 49.2735 123.391 48.8086 123.06 48.4496L122.324 49.1266C122.443 49.2558 122.529 49.455 122.529 49.7842H123.529ZM123.074 48.4651C122.758 48.0918 122.332 47.9072 121.843 47.9072V48.9072C122.057 48.9072 122.197 48.9765 122.311 49.1111L123.074 48.4651ZM121.843 47.9072C121.345 47.9072 120.887 48.0981 120.476 48.4269L121.1 49.2078C121.373 48.9898 121.618 48.9072 121.843 48.9072V47.9072ZM120.479 48.4245C119.934 48.8532 119.505 49.479 119.171 50.2618L120.091 50.6542C120.382 49.9722 120.724 49.5043 121.097 49.2103L120.479 48.4245ZM119.17 50.2651C118.706 51.3737 118.378 52.5046 118.186 53.6571L119.172 53.8215C119.351 52.7474 119.657 51.6907 120.092 50.6509L119.17 50.2651ZM137.605 56.5078L138.007 56.2112L137.703 55.7987L137.298 56.1127L137.605 56.5078ZM138.015 57.0645L138.337 57.4467L138.695 57.1448L138.417 56.7679L138.015 57.0645ZM135.1 59.2617L135.346 59.6967L135.347 59.6963L135.1 59.2617ZM132.448 59.8037L132.789 59.4382L132.783 59.4319L132.776 59.4259L132.448 59.8037ZM132.39 58.5439L131.909 58.4061L131.908 58.4082L132.39 58.5439ZM132.902 56.7568L133.383 56.8947L133.959 54.8868L132.536 56.4163L132.902 56.7568ZM129.973 59.3203L130.222 59.7538L129.973 59.3203ZM126.56 59.3203L126.163 59.6244L126.166 59.6285L126.56 59.3203ZM127.453 52.5381L127.011 52.304L127.011 52.3049L127.453 52.5381ZM130.632 48.5391L130.929 48.9411L130.93 48.9407L130.632 48.5391ZM134.807 47.3379L134.728 47.8317L135.185 47.9043L135.293 47.455L134.807 47.3379ZM136.125 43.1777L136.575 43.3953L136.576 43.3933L136.125 43.1777ZM140.022 39.4424L140.208 39.9063L140.211 39.9052L140.022 39.4424ZM143.391 40.7461L143.718 41.1246L143.727 41.1161L143.391 40.7461ZM138.879 41.0537L139.193 41.4427L139.195 41.4413L138.879 41.0537ZM138.147 42.4014L138.618 42.5689L138.62 42.5615L138.147 42.4014ZM137.077 46.6055L136.591 46.4908L136.59 46.491L137.077 46.6055ZM134.997 55.4531L134.51 55.3387L134.51 55.3394L134.997 55.4531ZM135.671 57.8994L135.909 58.3391L135.915 58.3359L135.671 57.8994ZM134.499 48.9492L134.986 49.0608L135.098 48.5716L134.609 48.4614L134.499 48.9492ZM130.925 49.4619L131.24 49.85L131.244 49.847L130.925 49.4619ZM129.108 52.4355L128.644 52.2509L128.643 52.2536L129.108 52.4355ZM128.64 57.5186L128.253 57.8352L128.258 57.8416L128.263 57.8478L128.64 57.5186ZM130.969 57.4453L131.251 57.8579L131.259 57.8522L130.969 57.4453ZM132.756 55.4824L133.19 55.73L133.196 55.72L132.756 55.4824ZM133.825 51.8936L134.312 52.0084L134.313 52.0051L133.825 51.8936ZM137.202 56.8044L137.612 57.3611L138.417 56.7679L138.007 56.2112L137.202 56.8044ZM137.692 56.6822C136.384 57.7852 135.443 58.4907 134.852 58.8272L135.347 59.6963C136.025 59.3101 137.028 58.5508 138.337 57.4467L137.692 56.6822ZM134.853 58.8267C133.989 59.3166 133.391 59.5088 133.02 59.5088V60.5088C133.664 60.5088 134.453 60.2029 135.346 59.6967L134.853 58.8267ZM133.02 59.5088C132.889 59.5088 132.828 59.474 132.789 59.4382L132.107 60.1692C132.362 60.4068 132.682 60.5088 133.02 60.5088V59.5088ZM132.776 59.4259C132.743 59.3977 132.733 59.3797 132.731 59.375C132.729 59.3725 132.729 59.3714 132.729 59.371C132.729 59.3706 132.729 59.3687 132.729 59.3643H131.729C131.729 59.7001 131.885 59.9772 132.121 60.1816L132.776 59.4259ZM132.729 59.3643C132.729 59.2744 132.764 59.0604 132.871 58.6797L131.908 58.4082C131.801 58.7892 131.729 59.1221 131.729 59.3643H132.729ZM132.87 58.6818L133.383 56.8947L132.422 56.619L131.909 58.4061L132.87 58.6818ZM132.536 56.4163C131.373 57.6663 130.438 58.476 129.723 58.8869L130.222 59.7538C131.07 59.2662 132.088 58.3669 133.269 57.0974L132.536 56.4163ZM129.723 58.8869C128.987 59.3106 128.371 59.4941 127.863 59.4941V60.4941C128.606 60.4941 129.396 60.2285 130.222 59.7538L129.723 58.8869ZM127.863 59.4941C127.517 59.4941 127.221 59.3544 126.953 59.0122L126.166 59.6285C126.601 60.1846 127.175 60.4941 127.863 60.4941V59.4941ZM126.957 59.0163C126.699 58.6795 126.532 58.1367 126.532 57.3135H125.532C125.532 58.2481 125.717 59.0431 126.163 59.6244L126.957 59.0163ZM126.532 57.3135C126.532 56.037 126.97 54.5272 127.895 52.7713L127.011 52.3049C126.042 54.1427 125.532 55.8165 125.532 57.3135H126.532ZM127.895 52.7721C128.831 51.006 129.847 49.7415 130.929 48.9411L130.335 48.137C129.093 49.0554 127.99 50.4569 127.011 52.304L127.895 52.7721ZM130.93 48.9407C132.057 48.1046 133.023 47.7354 133.84 47.7354V46.7354C132.724 46.7354 131.551 47.2352 130.334 48.1375L130.93 48.9407ZM133.84 47.7354C134.014 47.7354 134.304 47.7642 134.728 47.8317L134.885 46.8441C134.45 46.7749 134.096 46.7354 133.84 46.7354V47.7354ZM135.293 47.455C135.75 45.5576 136.18 44.2141 136.575 43.3953L135.675 42.9602C135.231 43.8797 134.781 45.3096 134.321 47.2207L135.293 47.455ZM136.576 43.3933C136.972 42.5657 137.479 41.8591 138.097 41.2687L137.406 40.5458C136.695 41.2249 136.118 42.032 135.674 42.9622L136.576 43.3933ZM138.097 41.2687C138.715 40.6777 139.418 40.2242 140.208 39.9063L139.835 38.9785C138.926 39.3441 138.115 39.8672 137.406 40.5458L138.097 41.2687ZM140.211 39.9052C141.025 39.5722 141.761 39.415 142.424 39.415V38.415C141.603 38.415 140.737 38.6094 139.832 38.9796L140.211 39.9052ZM142.424 39.415C142.725 39.415 142.91 39.4924 143.032 39.5989L143.691 38.8464C143.344 38.5428 142.904 38.415 142.424 38.415V39.415ZM143.032 39.5989C143.158 39.7087 143.213 39.8301 143.213 39.999H144.213C144.213 39.5429 144.034 39.1468 143.691 38.8464L143.032 39.5989ZM143.213 39.999C143.213 40.1677 143.16 40.2801 143.054 40.3761L143.727 41.1161C144.051 40.8215 144.213 40.4358 144.213 39.999H143.213ZM143.064 40.3677C142.965 40.4533 142.8 40.5244 142.512 40.5244V41.5244C142.965 41.5244 143.387 41.41 143.717 41.1245L143.064 40.3677ZM142.512 40.5244C142.309 40.5244 141.89 40.4815 141.222 40.3833L141.077 41.3726C141.737 41.4697 142.226 41.5244 142.512 41.5244V40.5244ZM141.222 40.3833C140.562 40.2861 140.073 40.2314 139.787 40.2314V41.2314C139.989 41.2314 140.409 41.2744 141.077 41.3726L141.222 40.3833ZM139.787 40.2314C139.331 40.2314 138.916 40.3782 138.563 40.6661L139.195 41.4413C139.369 41.2996 139.56 41.2314 139.787 41.2314V40.2314ZM138.565 40.6647C138.366 40.8253 138.204 41.0524 138.066 41.3057C137.926 41.5637 137.796 41.878 137.673 42.2413L138.62 42.5615C138.732 42.2314 138.841 41.9744 138.945 41.7832C139.051 41.5872 139.138 41.4872 139.193 41.4427L138.565 40.6647ZM137.675 42.2339C137.507 42.7062 137.144 44.1422 136.591 46.4908L137.564 46.7201C138.124 44.3422 138.473 42.9754 138.618 42.5689L137.675 42.2339ZM136.59 46.491L134.51 55.3387L135.484 55.5676L137.564 46.7199L136.59 46.491ZM134.51 55.3394C134.269 56.3727 134.131 57.1235 134.131 57.5332H135.131C135.131 57.2593 135.237 56.6234 135.484 55.5669L134.51 55.3394ZM134.131 57.5332C134.131 57.7682 134.173 58.0361 134.34 58.254C134.525 58.4975 134.795 58.5898 135.056 58.5898V57.5898C135.039 57.5898 135.048 57.5871 135.07 57.5969C135.081 57.6018 135.094 57.6089 135.106 57.6185C135.118 57.6281 135.128 57.6383 135.135 57.6473C135.148 57.6653 135.147 57.6724 135.142 57.6535C135.137 57.6339 135.131 57.5958 135.131 57.5332H134.131ZM135.056 58.5898C135.347 58.5898 135.636 58.4869 135.909 58.3391L135.433 57.4598C135.237 57.5659 135.116 57.5898 135.056 57.5898V58.5898ZM135.915 58.3359C136.286 58.1287 136.96 57.6402 137.911 56.9029L137.298 56.1127C136.335 56.8598 135.72 57.299 135.427 57.4629L135.915 58.3359ZM134.609 48.4614C133.829 48.286 133.228 48.1855 132.844 48.1855V49.1855C133.104 49.1855 133.607 49.2609 134.389 49.437L134.609 48.4614ZM132.844 48.1855C132.047 48.1855 131.298 48.5034 130.606 49.0768L131.244 49.847C131.801 49.3853 132.332 49.1855 132.844 49.1855V48.1855ZM130.61 49.0739C129.88 49.6665 129.236 50.7601 128.644 52.2509L129.573 52.6202C130.153 51.1618 130.72 50.273 131.24 49.85L130.61 49.0739ZM128.643 52.2536C128.053 53.7624 127.744 55.1109 127.744 56.2881H128.744C128.744 55.2778 129.011 54.0579 129.574 52.6175L128.643 52.2536ZM127.744 56.2881C127.744 56.878 127.902 57.4069 128.253 57.8352L129.027 57.2019C128.85 56.9857 128.744 56.6943 128.744 56.2881H127.744ZM128.263 57.8478C128.61 58.2434 129.046 58.4873 129.563 58.4873V57.4873C129.396 57.4873 129.217 57.4187 129.016 57.1893L128.263 57.8478ZM129.563 58.4873C130.116 58.4873 130.684 58.2466 131.251 57.8578L130.686 57.0328C130.199 57.3667 129.83 57.4873 129.563 57.4873V58.4873ZM131.259 57.8522C132.068 57.2747 132.714 56.5669 133.19 55.7299L132.321 55.2349C131.919 55.9409 131.374 56.5417 130.678 57.0384L131.259 57.8522ZM133.196 55.72C133.354 55.4268 133.521 54.9624 133.7 54.3618C133.882 53.7507 134.086 52.9653 134.312 52.0084L133.339 51.7788C133.115 52.7261 132.916 53.491 132.742 54.0762C132.564 54.6718 132.421 55.0498 132.316 55.2448L133.196 55.72ZM134.313 52.0051L134.986 49.0608L134.012 48.8377L133.338 51.782L134.313 52.0051Z" fill="#006D77"/>
<defs>
<clipPath id="clip0_175_65">
<rect width="61.96" height="69.54" fill="white"/>
</clipPath>
</defs>
</svg>
