<svg width="20" height="21" viewBox="0 0 20 21" fill="none" xmlns="http://www.w3.org/2000/svg">
<path d="M16.3333 18.04L11.0833 12.79C10.6667 13.1233 10.1875 13.3872 9.64583 13.5817C9.10417 13.7761 8.52778 13.8733 7.91667 13.8733C6.40278 13.8733 5.12167 13.3492 4.07333 12.3008C3.02444 11.252 2.5 9.97056 2.5 8.45668C2.5 6.94279 3.02444 5.6614 4.07333 4.61251C5.12167 3.56418 6.40278 3.04001 7.91667 3.04001C9.43056 3.04001 10.7119 3.56418 11.7608 4.61251C12.8092 5.6614 13.3333 6.94279 13.3333 8.45668C13.3333 9.06779 13.2361 9.64417 13.0417 10.1858C12.8472 10.7275 12.5833 11.2067 12.25 11.6233L17.5 16.8733L16.3333 18.04ZM7.91667 12.2067C8.95833 12.2067 9.84389 11.8422 10.5733 11.1133C11.3022 10.3839 11.6667 9.49834 11.6667 8.45668C11.6667 7.41501 11.3022 6.52945 10.5733 5.80001C9.84389 5.07112 8.95833 4.70668 7.91667 4.70668C6.875 4.70668 5.98944 5.07112 5.26 5.80001C4.53111 6.52945 4.16667 7.41501 4.16667 8.45668C4.16667 9.49834 4.53111 10.3839 5.26 11.1133C5.98944 11.8422 6.875 12.2067 7.91667 12.2067Z" fill="#006D77"/>
</svg>
