<svg width="20" height="21" viewBox="0 0 20 21" fill="none" xmlns="http://www.w3.org/2000/svg">
<path d="M9.99992 10.54C10.4583 10.54 10.8508 10.3767 11.1774 10.05C11.5035 9.7239 11.6666 9.33168 11.6666 8.87335C11.6666 8.41501 11.5035 8.02251 11.1774 7.69585C10.8508 7.36974 10.4583 7.20668 9.99992 7.20668C9.54158 7.20668 9.14936 7.36974 8.82325 7.69585C8.49659 8.02251 8.33325 8.41501 8.33325 8.87335C8.33325 9.33168 8.49659 9.7239 8.82325 10.05C9.14936 10.3767 9.54158 10.54 9.99992 10.54ZM9.99992 18.8733C7.76381 16.9706 6.09381 15.2031 4.98992 13.5708C3.88547 11.9392 3.33325 10.4289 3.33325 9.04001C3.33325 6.95668 4.00353 5.29696 5.34409 4.06085C6.68409 2.82474 8.23603 2.20668 9.99992 2.20668C11.7638 2.20668 13.3158 2.82474 14.6558 4.06085C15.9963 5.29696 16.6666 6.95668 16.6666 9.04001C16.6666 10.4289 16.1146 11.9392 15.0108 13.5708C13.9063 15.2031 12.236 16.9706 9.99992 18.8733Z" fill="#006D77"/>
</svg>
